<mxfile host="app.diagrams.net" modified="2024-03-07T13:37:19.060Z" agent="Mozilla/5.0 (Windows NT 10.0; Win64; x64) AppleWebKit/537.36 (KHTML, like Gecko) Chrome/122.0.0.0 Safari/537.36" etag="ujam2tT1D82EGg6CFJgv" version="24.0.2" type="device">
  <diagram name="Страница — 1" id="fnOiPrnEoTEtQ-_MaOaU">
    <mxGraphModel dx="2546" dy="893" grid="1" gridSize="10" guides="1" tooltips="1" connect="1" arrows="1" fold="1" page="1" pageScale="1" pageWidth="827" pageHeight="1169" math="0" shadow="0">
      <root>
        <mxCell id="0" />
        <mxCell id="1" parent="0" />
        <mxCell id="0mB2jGfSR8IdtGSJnhFy-39" value="" style="html=1;whiteSpace=wrap;" parent="1" vertex="1">
          <mxGeometry x="950" y="410" width="310" height="300" as="geometry" />
        </mxCell>
        <mxCell id="0mB2jGfSR8IdtGSJnhFy-33" value="" style="html=1;whiteSpace=wrap;" parent="1" vertex="1">
          <mxGeometry x="950" y="50" width="620" height="350" as="geometry" />
        </mxCell>
        <mxCell id="0mB2jGfSR8IdtGSJnhFy-23" value="" style="html=1;whiteSpace=wrap;" parent="1" vertex="1">
          <mxGeometry x="-20" y="50" width="940" height="660" as="geometry" />
        </mxCell>
        <mxCell id="0mB2jGfSR8IdtGSJnhFy-3" value="Conference" style="swimlane;fontStyle=1;align=center;verticalAlign=top;childLayout=stackLayout;horizontal=1;startSize=26;horizontalStack=0;resizeParent=1;resizeParentMax=0;resizeLast=0;collapsible=1;marginBottom=0;whiteSpace=wrap;html=1;" parent="1" vertex="1">
          <mxGeometry x="10" y="130" width="220" height="228" as="geometry" />
        </mxCell>
        <mxCell id="0mB2jGfSR8IdtGSJnhFy-4" value="+ id: UUID&lt;br&gt;+ name: String&lt;br&gt;+ date: Date&lt;br&gt;+ description: String" style="text;strokeColor=none;fillColor=none;align=left;verticalAlign=top;spacingLeft=4;spacingRight=4;overflow=hidden;rotatable=0;points=[[0,0.5],[1,0.5]];portConstraint=eastwest;whiteSpace=wrap;html=1;" parent="0mB2jGfSR8IdtGSJnhFy-3" vertex="1">
          <mxGeometry y="26" width="220" height="74" as="geometry" />
        </mxCell>
        <mxCell id="0mB2jGfSR8IdtGSJnhFy-5" value="" style="line;strokeWidth=1;fillColor=none;align=left;verticalAlign=middle;spacingTop=-1;spacingLeft=3;spacingRight=3;rotatable=0;labelPosition=right;points=[];portConstraint=eastwest;strokeColor=inherit;" parent="0mB2jGfSR8IdtGSJnhFy-3" vertex="1">
          <mxGeometry y="100" width="220" height="8" as="geometry" />
        </mxCell>
        <mxCell id="0mB2jGfSR8IdtGSJnhFy-6" value="+ create(String name) : Conference&lt;br&gt;+ update(String name, Date date, String description) : Conference&lt;div&gt;+ delete(String id) : boolean&lt;/div&gt;&lt;div&gt;+ getById(String id) : Conference&lt;/div&gt;" style="text;strokeColor=none;fillColor=none;align=left;verticalAlign=top;spacingLeft=4;spacingRight=4;overflow=hidden;rotatable=0;points=[[0,0.5],[1,0.5]];portConstraint=eastwest;whiteSpace=wrap;html=1;" parent="0mB2jGfSR8IdtGSJnhFy-3" vertex="1">
          <mxGeometry y="108" width="220" height="120" as="geometry" />
        </mxCell>
        <mxCell id="0mB2jGfSR8IdtGSJnhFy-7" value="Lecture" style="swimlane;fontStyle=1;align=center;verticalAlign=top;childLayout=stackLayout;horizontal=1;startSize=26;horizontalStack=0;resizeParent=1;resizeParentMax=0;resizeLast=0;collapsible=1;marginBottom=0;whiteSpace=wrap;html=1;" parent="1" vertex="1">
          <mxGeometry x="360" y="471" width="220" height="228" as="geometry" />
        </mxCell>
        <mxCell id="0mB2jGfSR8IdtGSJnhFy-8" value="+ id: UUID&lt;br&gt;+ name: String&lt;br&gt;+ attachments: List&amp;lt;File&amp;gt;&lt;br&gt;+ description: String" style="text;strokeColor=none;fillColor=none;align=left;verticalAlign=top;spacingLeft=4;spacingRight=4;overflow=hidden;rotatable=0;points=[[0,0.5],[1,0.5]];portConstraint=eastwest;whiteSpace=wrap;html=1;" parent="0mB2jGfSR8IdtGSJnhFy-7" vertex="1">
          <mxGeometry y="26" width="220" height="74" as="geometry" />
        </mxCell>
        <mxCell id="0mB2jGfSR8IdtGSJnhFy-9" value="" style="line;strokeWidth=1;fillColor=none;align=left;verticalAlign=middle;spacingTop=-1;spacingLeft=3;spacingRight=3;rotatable=0;labelPosition=right;points=[];portConstraint=eastwest;strokeColor=inherit;" parent="0mB2jGfSR8IdtGSJnhFy-7" vertex="1">
          <mxGeometry y="100" width="220" height="8" as="geometry" />
        </mxCell>
        <mxCell id="0mB2jGfSR8IdtGSJnhFy-10" value="+ create(String name) :&amp;nbsp;&lt;span style=&quot;text-align: center;&quot;&gt;Lecture&lt;/span&gt;&lt;br&gt;+ update(String name,&amp;nbsp; List&amp;lt;File&amp;gt; attachments, String description) :&amp;nbsp;&lt;span style=&quot;text-align: center;&quot;&gt;Lecture&lt;/span&gt;&lt;div&gt;+ delete(String id) : boolean&lt;/div&gt;&lt;div&gt;+ getById(String id) :&amp;nbsp;&lt;span style=&quot;text-align: center; background-color: initial;&quot;&gt;Lecture&lt;/span&gt;&lt;/div&gt;" style="text;strokeColor=none;fillColor=none;align=left;verticalAlign=top;spacingLeft=4;spacingRight=4;overflow=hidden;rotatable=0;points=[[0,0.5],[1,0.5]];portConstraint=eastwest;whiteSpace=wrap;html=1;" parent="0mB2jGfSR8IdtGSJnhFy-7" vertex="1">
          <mxGeometry y="108" width="220" height="120" as="geometry" />
        </mxCell>
        <mxCell id="0mB2jGfSR8IdtGSJnhFy-11" value="Speaker" style="swimlane;fontStyle=1;align=center;verticalAlign=top;childLayout=stackLayout;horizontal=1;startSize=26;horizontalStack=0;resizeParent=1;resizeParentMax=0;resizeLast=0;collapsible=1;marginBottom=0;whiteSpace=wrap;html=1;" parent="1" vertex="1">
          <mxGeometry x="670" y="130" width="220" height="228" as="geometry" />
        </mxCell>
        <mxCell id="0mB2jGfSR8IdtGSJnhFy-12" value="+ id: UUID&lt;br&gt;+ name: String&lt;div&gt;+ surname: String&lt;br&gt;+ description: String&lt;/div&gt;" style="text;strokeColor=none;fillColor=none;align=left;verticalAlign=top;spacingLeft=4;spacingRight=4;overflow=hidden;rotatable=0;points=[[0,0.5],[1,0.5]];portConstraint=eastwest;whiteSpace=wrap;html=1;" parent="0mB2jGfSR8IdtGSJnhFy-11" vertex="1">
          <mxGeometry y="26" width="220" height="74" as="geometry" />
        </mxCell>
        <mxCell id="0mB2jGfSR8IdtGSJnhFy-13" value="" style="line;strokeWidth=1;fillColor=none;align=left;verticalAlign=middle;spacingTop=-1;spacingLeft=3;spacingRight=3;rotatable=0;labelPosition=right;points=[];portConstraint=eastwest;strokeColor=inherit;" parent="0mB2jGfSR8IdtGSJnhFy-11" vertex="1">
          <mxGeometry y="100" width="220" height="8" as="geometry" />
        </mxCell>
        <mxCell id="0mB2jGfSR8IdtGSJnhFy-14" value="+ create(String name) :&amp;nbsp;&lt;span style=&quot;text-align: center;&quot;&gt;Speaker&lt;/span&gt;&lt;br&gt;+ update(String name,&amp;nbsp; String surname, String description) :&amp;nbsp;&lt;span style=&quot;text-align: center;&quot;&gt;Speaker&lt;/span&gt;&lt;div&gt;+ delete(String id) : boolean&lt;/div&gt;&lt;div&gt;+ getById(String id) :&amp;nbsp;&lt;span style=&quot;text-align: center; background-color: initial;&quot;&gt;Speaker&lt;/span&gt;&lt;/div&gt;" style="text;strokeColor=none;fillColor=none;align=left;verticalAlign=top;spacingLeft=4;spacingRight=4;overflow=hidden;rotatable=0;points=[[0,0.5],[1,0.5]];portConstraint=eastwest;whiteSpace=wrap;html=1;" parent="0mB2jGfSR8IdtGSJnhFy-11" vertex="1">
          <mxGeometry y="108" width="220" height="120" as="geometry" />
        </mxCell>
        <mxCell id="0mB2jGfSR8IdtGSJnhFy-15" value="Schedule" style="swimlane;fontStyle=1;align=center;verticalAlign=top;childLayout=stackLayout;horizontal=1;startSize=26;horizontalStack=0;resizeParent=1;resizeParentMax=0;resizeLast=0;collapsible=1;marginBottom=0;whiteSpace=wrap;html=1;" parent="1" vertex="1">
          <mxGeometry x="360" y="130" width="220" height="300" as="geometry" />
        </mxCell>
        <mxCell id="0mB2jGfSR8IdtGSJnhFy-16" value="+ id: UUID&lt;br&gt;+ conferenceId: UUID&lt;br&gt;+ speakerIds: List&amp;lt;UUID&amp;gt;&lt;br&gt;+ lectureId: UUID&lt;div&gt;+ dateTime: DateTime&lt;br&gt;+ room: String&lt;/div&gt;" style="text;strokeColor=none;fillColor=none;align=left;verticalAlign=top;spacingLeft=4;spacingRight=4;overflow=hidden;rotatable=0;points=[[0,0.5],[1,0.5]];portConstraint=eastwest;whiteSpace=wrap;html=1;" parent="0mB2jGfSR8IdtGSJnhFy-15" vertex="1">
          <mxGeometry y="26" width="220" height="94" as="geometry" />
        </mxCell>
        <mxCell id="0mB2jGfSR8IdtGSJnhFy-17" value="" style="line;strokeWidth=1;fillColor=none;align=left;verticalAlign=middle;spacingTop=-1;spacingLeft=3;spacingRight=3;rotatable=0;labelPosition=right;points=[];portConstraint=eastwest;strokeColor=inherit;" parent="0mB2jGfSR8IdtGSJnhFy-15" vertex="1">
          <mxGeometry y="120" width="220" height="8" as="geometry" />
        </mxCell>
        <mxCell id="0mB2jGfSR8IdtGSJnhFy-18" value="+ create(UUID conferenceId, List&amp;lt;UUID&amp;gt; speakerIds, UUID lectureId, DateTime dateTime) :&amp;nbsp;&lt;span style=&quot;text-align: center;&quot;&gt;Schedule&lt;/span&gt;&lt;br&gt;+ update(UUID conferenceId, List&amp;lt;UUID&amp;gt; speakerIds, UUID lectureId, DateTime dateTime, String room) :&amp;nbsp;&lt;span style=&quot;text-align: center;&quot;&gt;Schedule&lt;/span&gt;&lt;div&gt;+ delete(String id) : boolean&lt;/div&gt;&lt;div&gt;+ getById(String id) :&amp;nbsp;&lt;span style=&quot;text-align: center; background-color: initial;&quot;&gt;Schedule&lt;/span&gt;&lt;/div&gt;" style="text;strokeColor=none;fillColor=none;align=left;verticalAlign=top;spacingLeft=4;spacingRight=4;overflow=hidden;rotatable=0;points=[[0,0.5],[1,0.5]];portConstraint=eastwest;whiteSpace=wrap;html=1;" parent="0mB2jGfSR8IdtGSJnhFy-15" vertex="1">
          <mxGeometry y="128" width="220" height="172" as="geometry" />
        </mxCell>
        <mxCell id="0mB2jGfSR8IdtGSJnhFy-20" value="" style="endArrow=open;html=1;endSize=12;startArrow=diamondThin;startSize=14;startFill=1;edgeStyle=orthogonalEdgeStyle;align=left;verticalAlign=bottom;rounded=0;entryX=-0.011;entryY=0.221;entryDx=0;entryDy=0;entryPerimeter=0;exitX=1.005;exitY=0.475;exitDx=0;exitDy=0;exitPerimeter=0;" parent="1" source="0mB2jGfSR8IdtGSJnhFy-16" target="0mB2jGfSR8IdtGSJnhFy-12" edge="1">
          <mxGeometry x="-1" y="3" relative="1" as="geometry">
            <mxPoint x="590" y="210" as="sourcePoint" />
            <mxPoint x="490" y="360" as="targetPoint" />
            <Array as="points">
              <mxPoint x="625" y="201" />
              <mxPoint x="625" y="172" />
            </Array>
          </mxGeometry>
        </mxCell>
        <mxCell id="0mB2jGfSR8IdtGSJnhFy-21" value="" style="endArrow=open;html=1;endSize=12;startArrow=diamondThin;startSize=14;startFill=1;edgeStyle=orthogonalEdgeStyle;align=left;verticalAlign=bottom;rounded=0;exitX=-0.007;exitY=0.796;exitDx=0;exitDy=0;exitPerimeter=0;" parent="1" target="0mB2jGfSR8IdtGSJnhFy-8" edge="1">
          <mxGeometry x="-0.8624" y="-6" relative="1" as="geometry">
            <mxPoint x="358.46000000000004" y="215.904" as="sourcePoint" />
            <mxPoint x="460" y="471" as="targetPoint" />
            <Array as="points">
              <mxPoint x="330" y="216" />
              <mxPoint x="330" y="510" />
            </Array>
            <mxPoint x="6" y="-6" as="offset" />
          </mxGeometry>
        </mxCell>
        <mxCell id="0mB2jGfSR8IdtGSJnhFy-22" value="" style="endArrow=open;html=1;endSize=12;startArrow=diamondThin;startSize=14;startFill=1;edgeStyle=orthogonalEdgeStyle;align=left;verticalAlign=bottom;rounded=0;entryX=1.013;entryY=0.345;entryDx=0;entryDy=0;entryPerimeter=0;" parent="1" target="0mB2jGfSR8IdtGSJnhFy-4" edge="1">
          <mxGeometry x="-0.2979" relative="1" as="geometry">
            <mxPoint x="359.48" y="181.1" as="sourcePoint" />
            <mxPoint x="243.22" y="70.04999999999993" as="targetPoint" />
            <mxPoint as="offset" />
          </mxGeometry>
        </mxCell>
        <mxCell id="0mB2jGfSR8IdtGSJnhFy-24" value="&lt;span style=&quot;font-size: 24px;&quot;&gt;Система расписаний&lt;/span&gt;" style="text;html=1;align=center;verticalAlign=middle;whiteSpace=wrap;rounded=0;" parent="1" vertex="1">
          <mxGeometry x="320" y="60" width="300" height="30" as="geometry" />
        </mxCell>
        <mxCell id="0mB2jGfSR8IdtGSJnhFy-25" value="Participant" style="swimlane;fontStyle=1;align=center;verticalAlign=top;childLayout=stackLayout;horizontal=1;startSize=26;horizontalStack=0;resizeParent=1;resizeParentMax=0;resizeLast=0;collapsible=1;marginBottom=0;whiteSpace=wrap;html=1;" parent="1" vertex="1">
          <mxGeometry x="980" y="130" width="260" height="256" as="geometry" />
        </mxCell>
        <mxCell id="0mB2jGfSR8IdtGSJnhFy-26" value="+ id: UUID&lt;br&gt;+ name: String&lt;br&gt;+ surname: String&lt;br&gt;+ description: String&lt;br&gt;+ phone number: String&lt;br&gt;+ email : String&lt;br&gt;+ address: String" style="text;strokeColor=none;fillColor=none;align=left;verticalAlign=top;spacingLeft=4;spacingRight=4;overflow=hidden;rotatable=0;points=[[0,0.5],[1,0.5]];portConstraint=eastwest;whiteSpace=wrap;html=1;" parent="0mB2jGfSR8IdtGSJnhFy-25" vertex="1">
          <mxGeometry y="26" width="260" height="104" as="geometry" />
        </mxCell>
        <mxCell id="0mB2jGfSR8IdtGSJnhFy-27" value="" style="line;strokeWidth=1;fillColor=none;align=left;verticalAlign=middle;spacingTop=-1;spacingLeft=3;spacingRight=3;rotatable=0;labelPosition=right;points=[];portConstraint=eastwest;strokeColor=inherit;" parent="0mB2jGfSR8IdtGSJnhFy-25" vertex="1">
          <mxGeometry y="130" width="260" height="8" as="geometry" />
        </mxCell>
        <mxCell id="0mB2jGfSR8IdtGSJnhFy-28" value="+ create(String name) :&amp;nbsp;&lt;span style=&quot;text-align: center;&quot;&gt;Participant&lt;/span&gt;&lt;br&gt;+ update(String name, String surname, String description, String phoneNumber, String email, String address) :&amp;nbsp;&lt;span style=&quot;text-align: center;&quot;&gt;Participant&lt;/span&gt;&lt;div&gt;+ delete(String id) : boolean&lt;/div&gt;&lt;div&gt;+ getById(String id) :&amp;nbsp;&lt;span style=&quot;text-align: center; background-color: initial;&quot;&gt;Participant&lt;/span&gt;&lt;/div&gt;" style="text;strokeColor=none;fillColor=none;align=left;verticalAlign=top;spacingLeft=4;spacingRight=4;overflow=hidden;rotatable=0;points=[[0,0.5],[1,0.5]];portConstraint=eastwest;whiteSpace=wrap;html=1;" parent="0mB2jGfSR8IdtGSJnhFy-25" vertex="1">
          <mxGeometry y="138" width="260" height="118" as="geometry" />
        </mxCell>
        <mxCell id="0mB2jGfSR8IdtGSJnhFy-29" value="Notification" style="swimlane;fontStyle=1;align=center;verticalAlign=top;childLayout=stackLayout;horizontal=1;startSize=26;horizontalStack=0;resizeParent=1;resizeParentMax=0;resizeLast=0;collapsible=1;marginBottom=0;whiteSpace=wrap;html=1;" parent="1" vertex="1">
          <mxGeometry x="1280" y="130" width="260" height="246" as="geometry" />
        </mxCell>
        <mxCell id="0mB2jGfSR8IdtGSJnhFy-30" value="+ id: UUID&lt;br&gt;+ participantId: UUID&lt;br&gt;+ scheduleId: UUID&lt;div&gt;+ notificationMethod: String&lt;/div&gt;" style="text;strokeColor=none;fillColor=none;align=left;verticalAlign=top;spacingLeft=4;spacingRight=4;overflow=hidden;rotatable=0;points=[[0,0.5],[1,0.5]];portConstraint=eastwest;whiteSpace=wrap;html=1;" parent="0mB2jGfSR8IdtGSJnhFy-29" vertex="1">
          <mxGeometry y="26" width="260" height="94" as="geometry" />
        </mxCell>
        <mxCell id="0mB2jGfSR8IdtGSJnhFy-31" value="" style="line;strokeWidth=1;fillColor=none;align=left;verticalAlign=middle;spacingTop=-1;spacingLeft=3;spacingRight=3;rotatable=0;labelPosition=right;points=[];portConstraint=eastwest;strokeColor=inherit;" parent="0mB2jGfSR8IdtGSJnhFy-29" vertex="1">
          <mxGeometry y="120" width="260" height="8" as="geometry" />
        </mxCell>
        <mxCell id="0mB2jGfSR8IdtGSJnhFy-32" value="+ create(String name) :&amp;nbsp;&lt;span style=&quot;text-align: center;&quot;&gt;Notification&lt;/span&gt;&lt;br&gt;+ update(UUID participantId, UUID scheduleId, String notificationMethod) :&amp;nbsp;&lt;span style=&quot;text-align: center;&quot;&gt;Notification&lt;/span&gt;&lt;div&gt;+ delete(String id) : boolean&lt;/div&gt;&lt;div&gt;+ getById(String id) :&amp;nbsp;&lt;span style=&quot;text-align: center; background-color: initial;&quot;&gt;Notification&lt;/span&gt;&lt;/div&gt;" style="text;strokeColor=none;fillColor=none;align=left;verticalAlign=top;spacingLeft=4;spacingRight=4;overflow=hidden;rotatable=0;points=[[0,0.5],[1,0.5]];portConstraint=eastwest;whiteSpace=wrap;html=1;" parent="0mB2jGfSR8IdtGSJnhFy-29" vertex="1">
          <mxGeometry y="128" width="260" height="118" as="geometry" />
        </mxCell>
        <mxCell id="0mB2jGfSR8IdtGSJnhFy-34" value="&lt;span style=&quot;font-size: 24px;&quot;&gt;Система нотификаций слушателей&lt;/span&gt;" style="text;html=1;align=center;verticalAlign=middle;whiteSpace=wrap;rounded=0;" parent="1" vertex="1">
          <mxGeometry x="1110" y="70" width="300" height="30" as="geometry" />
        </mxCell>
        <mxCell id="0mB2jGfSR8IdtGSJnhFy-35" value="Vote" style="swimlane;fontStyle=1;align=center;verticalAlign=top;childLayout=stackLayout;horizontal=1;startSize=26;horizontalStack=0;resizeParent=1;resizeParentMax=0;resizeLast=0;collapsible=1;marginBottom=0;whiteSpace=wrap;html=1;" parent="1" vertex="1">
          <mxGeometry x="970" y="471" width="250" height="206" as="geometry" />
        </mxCell>
        <mxCell id="0mB2jGfSR8IdtGSJnhFy-36" value="+ id: UUID&lt;br&gt;+ participantId: String&lt;br&gt;+ scheduleId: String" style="text;strokeColor=none;fillColor=none;align=left;verticalAlign=top;spacingLeft=4;spacingRight=4;overflow=hidden;rotatable=0;points=[[0,0.5],[1,0.5]];portConstraint=eastwest;whiteSpace=wrap;html=1;" parent="0mB2jGfSR8IdtGSJnhFy-35" vertex="1">
          <mxGeometry y="26" width="250" height="54" as="geometry" />
        </mxCell>
        <mxCell id="0mB2jGfSR8IdtGSJnhFy-37" value="" style="line;strokeWidth=1;fillColor=none;align=left;verticalAlign=middle;spacingTop=-1;spacingLeft=3;spacingRight=3;rotatable=0;labelPosition=right;points=[];portConstraint=eastwest;strokeColor=inherit;" parent="0mB2jGfSR8IdtGSJnhFy-35" vertex="1">
          <mxGeometry y="80" width="250" height="8" as="geometry" />
        </mxCell>
        <mxCell id="0mB2jGfSR8IdtGSJnhFy-38" value="+ create(String name) :&amp;nbsp;&lt;span style=&quot;text-align: center;&quot;&gt;Vote&lt;/span&gt;&lt;br&gt;+ update(UUID participantId, UUID scheduleId) :&amp;nbsp;&lt;span style=&quot;text-align: center;&quot;&gt;Vote&lt;/span&gt;&lt;div&gt;+ delete(String id) : boolean&lt;/div&gt;&lt;div&gt;+ getById(String id) :&amp;nbsp;&lt;span style=&quot;text-align: center; background-color: initial;&quot;&gt;Vote&lt;/span&gt;&lt;/div&gt;" style="text;strokeColor=none;fillColor=none;align=left;verticalAlign=top;spacingLeft=4;spacingRight=4;overflow=hidden;rotatable=0;points=[[0,0.5],[1,0.5]];portConstraint=eastwest;whiteSpace=wrap;html=1;" parent="0mB2jGfSR8IdtGSJnhFy-35" vertex="1">
          <mxGeometry y="88" width="250" height="118" as="geometry" />
        </mxCell>
        <mxCell id="0mB2jGfSR8IdtGSJnhFy-40" value="&lt;span style=&quot;font-size: 24px;&quot;&gt;Система голосования&lt;/span&gt;" style="text;html=1;align=center;verticalAlign=middle;whiteSpace=wrap;rounded=0;" parent="1" vertex="1">
          <mxGeometry x="950" y="420" width="300" height="30" as="geometry" />
        </mxCell>
        <mxCell id="SbZQR5OXPOd2LrwtMlFi-2" value="" style="endArrow=open;html=1;endSize=12;startArrow=diamondThin;startSize=14;startFill=1;edgeStyle=orthogonalEdgeStyle;align=left;verticalAlign=bottom;rounded=0;exitX=0.004;exitY=0.258;exitDx=0;exitDy=0;exitPerimeter=0;" edge="1" parent="1" source="0mB2jGfSR8IdtGSJnhFy-30">
          <mxGeometry x="-0.2979" relative="1" as="geometry">
            <mxPoint x="1286.48" y="180" as="sourcePoint" />
            <mxPoint x="1240" y="180" as="targetPoint" />
            <mxPoint as="offset" />
          </mxGeometry>
        </mxCell>
      </root>
    </mxGraphModel>
  </diagram>
</mxfile>
